<?xml version="1.0" encoding="utf-8" standalone="no"?>
<!DOCTYPE svg PUBLIC "-//W3C//DTD SVG 1.1//EN"
  "http://www.w3.org/Graphics/SVG/1.1/DTD/svg11.dtd">
<svg xmlns:xlink="http://www.w3.org/1999/xlink" width="857.285938pt" height="425.24625pt" viewBox="0 0 857.285938 425.24625" xmlns="http://www.w3.org/2000/svg" version="1.1">
 <metadata>
  <rdf:RDF xmlns:dc="http://purl.org/dc/elements/1.1/" xmlns:cc="http://creativecommons.org/ns#" xmlns:rdf="http://www.w3.org/1999/02/22-rdf-syntax-ns#">
   <cc:Work>
    <dc:type rdf:resource="http://purl.org/dc/dcmitype/StillImage"/>
    <dc:date>2025-08-14T12:07:32.943796</dc:date>
    <dc:format>image/svg+xml</dc:format>
    <dc:creator>
     <cc:Agent>
      <dc:title>Matplotlib v3.10.0, https://matplotlib.org/</dc:title>
     </cc:Agent>
    </dc:creator>
   </cc:Work>
  </rdf:RDF>
 </metadata>
 <defs>
  <style type="text/css">*{stroke-linejoin: round; stroke-linecap: butt}</style>
 </defs>
 <g id="figure_1">
  <g id="patch_1">
   <path d="M 0 425.24625 
L 857.285938 425.24625 
L 857.285938 0 
L 0 0 
z
" style="fill: #ffffff"/>
  </g>
  <g id="axes_1">
   <g id="patch_2">
    <path d="M 32.735938 405.400937 
L 850.085938 405.400937 
L 850.085938 23.220937 
L 32.735938 23.220937 
z
" style="fill: #ffffff"/>
   </g>
   <g id="matplotlib.axis_1">
    <g id="xtick_1">
     <g id="line2d_1">
      <path d="M 114.470938 405.400937 
L 114.470938 23.220937 
" clip-path="url(#p5200ac1d84)" style="fill: none; stroke: #cccccc; stroke-opacity: 0.3; stroke-width: 0.8; stroke-linecap: round"/>
     </g>
     <g id="line2d_2"/>
     <g id="text_1">
      <!-- X1 -->
      <g style="fill: #262626" transform="translate(108.355313 416.05875) scale(0.1 -0.1)">
       <defs>
        <path id="ArialMT-58" d="M 28 0 
L 1800 2388 
L 238 4581 
L 959 4581 
L 1791 3406 
Q 2050 3041 2159 2844 
Q 2313 3094 2522 3366 
L 3444 4581 
L 4103 4581 
L 2494 2422 
L 4228 0 
L 3478 0 
L 2325 1634 
Q 2228 1775 2125 1941 
Q 1972 1691 1906 1597 
L 756 0 
L 28 0 
z
" transform="scale(0.015625)"/>
        <path id="ArialMT-31" d="M 2384 0 
L 1822 0 
L 1822 3584 
Q 1619 3391 1289 3197 
Q 959 3003 697 2906 
L 697 3450 
Q 1169 3672 1522 3987 
Q 1875 4303 2022 4600 
L 2384 4600 
L 2384 0 
z
" transform="scale(0.015625)"/>
       </defs>
       <use xlink:href="#ArialMT-58"/>
       <use xlink:href="#ArialMT-31" transform="translate(66.699219 0)"/>
      </g>
     </g>
    </g>
    <g id="xtick_2">
     <g id="line2d_3">
      <path d="M 277.940938 405.400937 
L 277.940938 23.220937 
" clip-path="url(#p5200ac1d84)" style="fill: none; stroke: #cccccc; stroke-opacity: 0.3; stroke-width: 0.8; stroke-linecap: round"/>
     </g>
     <g id="line2d_4"/>
     <g id="text_2">
      <!-- X2 -->
      <g style="fill: #262626" transform="translate(271.825312 416.05875) scale(0.1 -0.1)">
       <defs>
        <path id="ArialMT-32" d="M 3222 541 
L 3222 0 
L 194 0 
Q 188 203 259 391 
Q 375 700 629 1000 
Q 884 1300 1366 1694 
Q 2113 2306 2375 2664 
Q 2638 3022 2638 3341 
Q 2638 3675 2398 3904 
Q 2159 4134 1775 4134 
Q 1369 4134 1125 3890 
Q 881 3647 878 3216 
L 300 3275 
Q 359 3922 746 4261 
Q 1134 4600 1788 4600 
Q 2447 4600 2831 4234 
Q 3216 3869 3216 3328 
Q 3216 3053 3103 2787 
Q 2991 2522 2730 2228 
Q 2469 1934 1863 1422 
Q 1356 997 1212 845 
Q 1069 694 975 541 
L 3222 541 
z
" transform="scale(0.015625)"/>
       </defs>
       <use xlink:href="#ArialMT-58"/>
       <use xlink:href="#ArialMT-32" transform="translate(66.699219 0)"/>
      </g>
     </g>
    </g>
    <g id="xtick_3">
     <g id="line2d_5">
      <path d="M 441.410938 405.400937 
L 441.410938 23.220937 
" clip-path="url(#p5200ac1d84)" style="fill: none; stroke: #cccccc; stroke-opacity: 0.3; stroke-width: 0.8; stroke-linecap: round"/>
     </g>
     <g id="line2d_6"/>
     <g id="text_3">
      <!-- X3 -->
      <g style="fill: #262626" transform="translate(435.295313 416.05875) scale(0.1 -0.1)">
       <defs>
        <path id="ArialMT-33" d="M 269 1209 
L 831 1284 
Q 928 806 1161 595 
Q 1394 384 1728 384 
Q 2125 384 2398 659 
Q 2672 934 2672 1341 
Q 2672 1728 2419 1979 
Q 2166 2231 1775 2231 
Q 1616 2231 1378 2169 
L 1441 2663 
Q 1497 2656 1531 2656 
Q 1891 2656 2178 2843 
Q 2466 3031 2466 3422 
Q 2466 3731 2256 3934 
Q 2047 4138 1716 4138 
Q 1388 4138 1169 3931 
Q 950 3725 888 3313 
L 325 3413 
Q 428 3978 793 4289 
Q 1159 4600 1703 4600 
Q 2078 4600 2393 4439 
Q 2709 4278 2876 4000 
Q 3044 3722 3044 3409 
Q 3044 3113 2884 2869 
Q 2725 2625 2413 2481 
Q 2819 2388 3044 2092 
Q 3269 1797 3269 1353 
Q 3269 753 2831 336 
Q 2394 -81 1725 -81 
Q 1122 -81 723 278 
Q 325 638 269 1209 
z
" transform="scale(0.015625)"/>
       </defs>
       <use xlink:href="#ArialMT-58"/>
       <use xlink:href="#ArialMT-33" transform="translate(66.699219 0)"/>
      </g>
     </g>
    </g>
    <g id="xtick_4">
     <g id="line2d_7">
      <path d="M 604.880938 405.400937 
L 604.880938 23.220937 
" clip-path="url(#p5200ac1d84)" style="fill: none; stroke: #cccccc; stroke-opacity: 0.3; stroke-width: 0.8; stroke-linecap: round"/>
     </g>
     <g id="line2d_8"/>
     <g id="text_4">
      <!-- X4 -->
      <g style="fill: #262626" transform="translate(598.765313 416.05875) scale(0.1 -0.1)">
       <defs>
        <path id="ArialMT-34" d="M 2069 0 
L 2069 1097 
L 81 1097 
L 81 1613 
L 2172 4581 
L 2631 4581 
L 2631 1613 
L 3250 1613 
L 3250 1097 
L 2631 1097 
L 2631 0 
L 2069 0 
z
M 2069 1613 
L 2069 3678 
L 634 1613 
L 2069 1613 
z
" transform="scale(0.015625)"/>
       </defs>
       <use xlink:href="#ArialMT-58"/>
       <use xlink:href="#ArialMT-34" transform="translate(66.699219 0)"/>
      </g>
     </g>
    </g>
    <g id="xtick_5">
     <g id="line2d_9">
      <path d="M 768.350938 405.400937 
L 768.350938 23.220937 
" clip-path="url(#p5200ac1d84)" style="fill: none; stroke: #cccccc; stroke-opacity: 0.3; stroke-width: 0.8; stroke-linecap: round"/>
     </g>
     <g id="line2d_10"/>
     <g id="text_5">
      <!-- X5 -->
      <g style="fill: #262626" transform="translate(762.235313 416.05875) scale(0.1 -0.1)">
       <defs>
        <path id="ArialMT-35" d="M 266 1200 
L 856 1250 
Q 922 819 1161 601 
Q 1400 384 1738 384 
Q 2144 384 2425 690 
Q 2706 997 2706 1503 
Q 2706 1984 2436 2262 
Q 2166 2541 1728 2541 
Q 1456 2541 1237 2417 
Q 1019 2294 894 2097 
L 366 2166 
L 809 4519 
L 3088 4519 
L 3088 3981 
L 1259 3981 
L 1013 2750 
Q 1425 3038 1878 3038 
Q 2478 3038 2890 2622 
Q 3303 2206 3303 1553 
Q 3303 931 2941 478 
Q 2500 -78 1738 -78 
Q 1113 -78 717 272 
Q 322 622 266 1200 
z
" transform="scale(0.015625)"/>
       </defs>
       <use xlink:href="#ArialMT-58"/>
       <use xlink:href="#ArialMT-35" transform="translate(66.699219 0)"/>
      </g>
     </g>
    </g>
   </g>
   <g id="matplotlib.axis_2">
    <g id="ytick_1">
     <g id="line2d_11">
      <path d="M 32.735938 401.375892 
L 850.085938 401.375892 
" clip-path="url(#p5200ac1d84)" style="fill: none; stroke: #cccccc; stroke-opacity: 0.3; stroke-width: 0.8; stroke-linecap: round"/>
     </g>
     <g id="line2d_12"/>
     <g id="text_6">
      <!-- -1 -->
      <g style="fill: #262626" transform="translate(20.345313 404.954799) scale(0.1 -0.1)">
       <defs>
        <path id="ArialMT-2d" d="M 203 1375 
L 203 1941 
L 1931 1941 
L 1931 1375 
L 203 1375 
z
" transform="scale(0.015625)"/>
       </defs>
       <use xlink:href="#ArialMT-2d"/>
       <use xlink:href="#ArialMT-31" transform="translate(33.300781 0)"/>
      </g>
     </g>
    </g>
    <g id="ytick_2">
     <g id="line2d_13">
      <path d="M 32.735938 343.568723 
L 850.085938 343.568723 
" clip-path="url(#p5200ac1d84)" style="fill: none; stroke: #cccccc; stroke-opacity: 0.3; stroke-width: 0.8; stroke-linecap: round"/>
     </g>
     <g id="line2d_14"/>
     <g id="text_7">
      <!-- 0 -->
      <g style="fill: #262626" transform="translate(23.675 347.147629) scale(0.1 -0.1)">
       <defs>
        <path id="ArialMT-30" d="M 266 2259 
Q 266 3072 433 3567 
Q 600 4063 929 4331 
Q 1259 4600 1759 4600 
Q 2128 4600 2406 4451 
Q 2684 4303 2865 4023 
Q 3047 3744 3150 3342 
Q 3253 2941 3253 2259 
Q 3253 1453 3087 958 
Q 2922 463 2592 192 
Q 2263 -78 1759 -78 
Q 1097 -78 719 397 
Q 266 969 266 2259 
z
M 844 2259 
Q 844 1131 1108 757 
Q 1372 384 1759 384 
Q 2147 384 2411 759 
Q 2675 1134 2675 2259 
Q 2675 3391 2411 3762 
Q 2147 4134 1753 4134 
Q 1366 4134 1134 3806 
Q 844 3388 844 2259 
z
" transform="scale(0.015625)"/>
       </defs>
       <use xlink:href="#ArialMT-30"/>
      </g>
     </g>
    </g>
    <g id="ytick_3">
     <g id="line2d_15">
      <path d="M 32.735938 285.761554 
L 850.085938 285.761554 
" clip-path="url(#p5200ac1d84)" style="fill: none; stroke: #cccccc; stroke-opacity: 0.3; stroke-width: 0.8; stroke-linecap: round"/>
     </g>
     <g id="line2d_16"/>
     <g id="text_8">
      <!-- 1 -->
      <g style="fill: #262626" transform="translate(23.675 289.34046) scale(0.1 -0.1)">
       <use xlink:href="#ArialMT-31"/>
      </g>
     </g>
    </g>
    <g id="ytick_4">
     <g id="line2d_17">
      <path d="M 32.735938 227.954385 
L 850.085938 227.954385 
" clip-path="url(#p5200ac1d84)" style="fill: none; stroke: #cccccc; stroke-opacity: 0.3; stroke-width: 0.8; stroke-linecap: round"/>
     </g>
     <g id="line2d_18"/>
     <g id="text_9">
      <!-- 2 -->
      <g style="fill: #262626" transform="translate(23.675 231.533291) scale(0.1 -0.1)">
       <use xlink:href="#ArialMT-32"/>
      </g>
     </g>
    </g>
    <g id="ytick_5">
     <g id="line2d_19">
      <path d="M 32.735938 170.147216 
L 850.085938 170.147216 
" clip-path="url(#p5200ac1d84)" style="fill: none; stroke: #cccccc; stroke-opacity: 0.3; stroke-width: 0.8; stroke-linecap: round"/>
     </g>
     <g id="line2d_20"/>
     <g id="text_10">
      <!-- 3 -->
      <g style="fill: #262626" transform="translate(23.675 173.726122) scale(0.1 -0.1)">
       <use xlink:href="#ArialMT-33"/>
      </g>
     </g>
    </g>
    <g id="ytick_6">
     <g id="line2d_21">
      <path d="M 32.735938 112.340047 
L 850.085938 112.340047 
" clip-path="url(#p5200ac1d84)" style="fill: none; stroke: #cccccc; stroke-opacity: 0.3; stroke-width: 0.8; stroke-linecap: round"/>
     </g>
     <g id="line2d_22"/>
     <g id="text_11">
      <!-- 4 -->
      <g style="fill: #262626" transform="translate(23.675 115.918953) scale(0.1 -0.1)">
       <use xlink:href="#ArialMT-34"/>
      </g>
     </g>
    </g>
    <g id="ytick_7">
     <g id="line2d_23">
      <path d="M 32.735938 54.532878 
L 850.085938 54.532878 
" clip-path="url(#p5200ac1d84)" style="fill: none; stroke: #cccccc; stroke-opacity: 0.3; stroke-width: 0.8; stroke-linecap: round"/>
     </g>
     <g id="line2d_24"/>
     <g id="text_12">
      <!-- 5 -->
      <g style="fill: #262626" transform="translate(23.675 58.111784) scale(0.1 -0.1)">
       <use xlink:href="#ArialMT-35"/>
      </g>
     </g>
    </g>
    <g id="text_13">
     <!-- Feature Values -->
     <g style="fill: #262626" transform="translate(14.357813 247.848437) rotate(-90) scale(0.1 -0.1)">
      <defs>
       <path id="ArialMT-46" d="M 525 0 
L 525 4581 
L 3616 4581 
L 3616 4041 
L 1131 4041 
L 1131 2622 
L 3281 2622 
L 3281 2081 
L 1131 2081 
L 1131 0 
L 525 0 
z
" transform="scale(0.015625)"/>
       <path id="ArialMT-65" d="M 2694 1069 
L 3275 997 
Q 3138 488 2766 206 
Q 2394 -75 1816 -75 
Q 1088 -75 661 373 
Q 234 822 234 1631 
Q 234 2469 665 2931 
Q 1097 3394 1784 3394 
Q 2450 3394 2872 2941 
Q 3294 2488 3294 1666 
Q 3294 1616 3291 1516 
L 816 1516 
Q 847 969 1125 678 
Q 1403 388 1819 388 
Q 2128 388 2347 550 
Q 2566 713 2694 1069 
z
M 847 1978 
L 2700 1978 
Q 2663 2397 2488 2606 
Q 2219 2931 1791 2931 
Q 1403 2931 1139 2672 
Q 875 2413 847 1978 
z
" transform="scale(0.015625)"/>
       <path id="ArialMT-61" d="M 2588 409 
Q 2275 144 1986 34 
Q 1697 -75 1366 -75 
Q 819 -75 525 192 
Q 231 459 231 875 
Q 231 1119 342 1320 
Q 453 1522 633 1644 
Q 813 1766 1038 1828 
Q 1203 1872 1538 1913 
Q 2219 1994 2541 2106 
Q 2544 2222 2544 2253 
Q 2544 2597 2384 2738 
Q 2169 2928 1744 2928 
Q 1347 2928 1158 2789 
Q 969 2650 878 2297 
L 328 2372 
Q 403 2725 575 2942 
Q 747 3159 1072 3276 
Q 1397 3394 1825 3394 
Q 2250 3394 2515 3294 
Q 2781 3194 2906 3042 
Q 3031 2891 3081 2659 
Q 3109 2516 3109 2141 
L 3109 1391 
Q 3109 606 3145 398 
Q 3181 191 3288 0 
L 2700 0 
Q 2613 175 2588 409 
z
M 2541 1666 
Q 2234 1541 1622 1453 
Q 1275 1403 1131 1340 
Q 988 1278 909 1158 
Q 831 1038 831 891 
Q 831 666 1001 516 
Q 1172 366 1500 366 
Q 1825 366 2078 508 
Q 2331 650 2450 897 
Q 2541 1088 2541 1459 
L 2541 1666 
z
" transform="scale(0.015625)"/>
       <path id="ArialMT-74" d="M 1650 503 
L 1731 6 
Q 1494 -44 1306 -44 
Q 1000 -44 831 53 
Q 663 150 594 308 
Q 525 466 525 972 
L 525 2881 
L 113 2881 
L 113 3319 
L 525 3319 
L 525 4141 
L 1084 4478 
L 1084 3319 
L 1650 3319 
L 1650 2881 
L 1084 2881 
L 1084 941 
Q 1084 700 1114 631 
Q 1144 563 1211 522 
Q 1278 481 1403 481 
Q 1497 481 1650 503 
z
" transform="scale(0.015625)"/>
       <path id="ArialMT-75" d="M 2597 0 
L 2597 488 
Q 2209 -75 1544 -75 
Q 1250 -75 995 37 
Q 741 150 617 320 
Q 494 491 444 738 
Q 409 903 409 1263 
L 409 3319 
L 972 3319 
L 972 1478 
Q 972 1038 1006 884 
Q 1059 663 1231 536 
Q 1403 409 1656 409 
Q 1909 409 2131 539 
Q 2353 669 2445 892 
Q 2538 1116 2538 1541 
L 2538 3319 
L 3100 3319 
L 3100 0 
L 2597 0 
z
" transform="scale(0.015625)"/>
       <path id="ArialMT-72" d="M 416 0 
L 416 3319 
L 922 3319 
L 922 2816 
Q 1116 3169 1280 3281 
Q 1444 3394 1641 3394 
Q 1925 3394 2219 3213 
L 2025 2691 
Q 1819 2813 1613 2813 
Q 1428 2813 1281 2702 
Q 1134 2591 1072 2394 
Q 978 2094 978 1738 
L 978 0 
L 416 0 
z
" transform="scale(0.015625)"/>
       <path id="ArialMT-20" transform="scale(0.015625)"/>
       <path id="ArialMT-56" d="M 1803 0 
L 28 4581 
L 684 4581 
L 1875 1253 
Q 2019 853 2116 503 
Q 2222 878 2363 1253 
L 3600 4581 
L 4219 4581 
L 2425 0 
L 1803 0 
z
" transform="scale(0.015625)"/>
       <path id="ArialMT-6c" d="M 409 0 
L 409 4581 
L 972 4581 
L 972 0 
L 409 0 
z
" transform="scale(0.015625)"/>
       <path id="ArialMT-73" d="M 197 991 
L 753 1078 
Q 800 744 1014 566 
Q 1228 388 1613 388 
Q 2000 388 2187 545 
Q 2375 703 2375 916 
Q 2375 1106 2209 1216 
Q 2094 1291 1634 1406 
Q 1016 1563 777 1677 
Q 538 1791 414 1992 
Q 291 2194 291 2438 
Q 291 2659 392 2848 
Q 494 3038 669 3163 
Q 800 3259 1026 3326 
Q 1253 3394 1513 3394 
Q 1903 3394 2198 3281 
Q 2494 3169 2634 2976 
Q 2775 2784 2828 2463 
L 2278 2388 
Q 2241 2644 2061 2787 
Q 1881 2931 1553 2931 
Q 1166 2931 1000 2803 
Q 834 2675 834 2503 
Q 834 2394 903 2306 
Q 972 2216 1119 2156 
Q 1203 2125 1616 2013 
Q 2213 1853 2448 1751 
Q 2684 1650 2818 1456 
Q 2953 1263 2953 975 
Q 2953 694 2789 445 
Q 2625 197 2315 61 
Q 2006 -75 1616 -75 
Q 969 -75 630 194 
Q 291 463 197 991 
z
" transform="scale(0.015625)"/>
      </defs>
      <use xlink:href="#ArialMT-46"/>
      <use xlink:href="#ArialMT-65" transform="translate(61.083984 0)"/>
      <use xlink:href="#ArialMT-61" transform="translate(116.699219 0)"/>
      <use xlink:href="#ArialMT-74" transform="translate(172.314453 0)"/>
      <use xlink:href="#ArialMT-75" transform="translate(200.097656 0)"/>
      <use xlink:href="#ArialMT-72" transform="translate(255.712891 0)"/>
      <use xlink:href="#ArialMT-65" transform="translate(289.013672 0)"/>
      <use xlink:href="#ArialMT-20" transform="translate(344.628906 0)"/>
      <use xlink:href="#ArialMT-56" transform="translate(372.412109 0)"/>
      <use xlink:href="#ArialMT-61" transform="translate(431.736328 0)"/>
      <use xlink:href="#ArialMT-6c" transform="translate(487.351562 0)"/>
      <use xlink:href="#ArialMT-75" transform="translate(509.568359 0)"/>
      <use xlink:href="#ArialMT-65" transform="translate(565.183594 0)"/>
      <use xlink:href="#ArialMT-73" transform="translate(620.798828 0)"/>
     </g>
    </g>
   </g>
   <g id="line2d_25">
    <path d="M 73.603438 371.390575 
L 155.338438 371.390575 
L 155.338438 347.589755 
L 73.603438 347.589755 
L 73.603438 371.390575 
" clip-path="url(#p5200ac1d84)" style="fill: none; stroke: #000000; stroke-linecap: round"/>
   </g>
   <g id="line2d_26">
    <path d="M 114.470938 371.390575 
L 114.470938 375.753956 
" clip-path="url(#p5200ac1d84)" style="fill: none; stroke: #000000; stroke-linecap: round"/>
   </g>
   <g id="line2d_27">
    <path d="M 114.470938 347.589755 
L 114.470938 314.057882 
" clip-path="url(#p5200ac1d84)" style="fill: none; stroke: #000000; stroke-linecap: round"/>
   </g>
   <g id="line2d_28">
    <path d="M 94.037188 375.753956 
L 134.904688 375.753956 
" clip-path="url(#p5200ac1d84)" style="fill: none; stroke: #000000; stroke-linecap: round"/>
   </g>
   <g id="line2d_29">
    <path d="M 94.037188 314.057882 
L 134.904688 314.057882 
" clip-path="url(#p5200ac1d84)" style="fill: none; stroke: #000000; stroke-linecap: round"/>
   </g>
   <g id="line2d_30">
    <defs>
     <path id="m26bab50852" d="M 0 3 
C 0.795609 3 1.55874 2.683901 2.12132 2.12132 
C 2.683901 1.55874 3 0.795609 3 0 
C 3 -0.795609 2.683901 -1.55874 2.12132 -2.12132 
C 1.55874 -2.683901 0.795609 -3 0 -3 
C -0.795609 -3 -1.55874 -2.683901 -2.12132 -2.12132 
C -2.683901 -1.55874 -3 -0.795609 -3 0 
C -3 0.795609 -2.683901 1.55874 -2.12132 2.12132 
C -1.55874 2.683901 -0.795609 3 0 3 
z
" style="stroke: #000000"/>
    </defs>
    <g clip-path="url(#p5200ac1d84)">
     <use xlink:href="#m26bab50852" x="114.470938" y="261.092116" style="fill-opacity: 0; stroke: #000000"/>
     <use xlink:href="#m26bab50852" x="114.470938" y="206.781563" style="fill-opacity: 0; stroke: #000000"/>
     <use xlink:href="#m26bab50852" x="114.470938" y="268.102017" style="fill-opacity: 0; stroke: #000000"/>
     <use xlink:href="#m26bab50852" x="114.470938" y="288.371018" style="fill-opacity: 0; stroke: #000000"/>
     <use xlink:href="#m26bab50852" x="114.470938" y="300.879852" style="fill-opacity: 0; stroke: #000000"/>
     <use xlink:href="#m26bab50852" x="114.470938" y="261.602496" style="fill-opacity: 0; stroke: #000000"/>
     <use xlink:href="#m26bab50852" x="114.470938" y="311.587753" style="fill-opacity: 0; stroke: #000000"/>
     <use xlink:href="#m26bab50852" x="114.470938" y="40.592756" style="fill-opacity: 0; stroke: #000000"/>
     <use xlink:href="#m26bab50852" x="114.470938" y="257.077791" style="fill-opacity: 0; stroke: #000000"/>
     <use xlink:href="#m26bab50852" x="114.470938" y="85.408709" style="fill-opacity: 0; stroke: #000000"/>
     <use xlink:href="#m26bab50852" x="114.470938" y="70.096209" style="fill-opacity: 0; stroke: #000000"/>
     <use xlink:href="#m26bab50852" x="114.470938" y="310.56173" style="fill-opacity: 0; stroke: #000000"/>
     <use xlink:href="#m26bab50852" x="114.470938" y="300.849086" style="fill-opacity: 0; stroke: #000000"/>
     <use xlink:href="#m26bab50852" x="114.470938" y="283.111452" style="fill-opacity: 0; stroke: #000000"/>
     <use xlink:href="#m26bab50852" x="114.470938" y="273.272179" style="fill-opacity: 0; stroke: #000000"/>
     <use xlink:href="#m26bab50852" x="114.470938" y="294.959491" style="fill-opacity: 0; stroke: #000000"/>
     <use xlink:href="#m26bab50852" x="114.470938" y="74.157743" style="fill-opacity: 0; stroke: #000000"/>
     <use xlink:href="#m26bab50852" x="114.470938" y="226.761841" style="fill-opacity: 0; stroke: #000000"/>
     <use xlink:href="#m26bab50852" x="114.470938" y="235.419256" style="fill-opacity: 0; stroke: #000000"/>
     <use xlink:href="#m26bab50852" x="114.470938" y="284.45773" style="fill-opacity: 0; stroke: #000000"/>
     <use xlink:href="#m26bab50852" x="114.470938" y="267.414591" style="fill-opacity: 0; stroke: #000000"/>
     <use xlink:href="#m26bab50852" x="114.470938" y="95.966263" style="fill-opacity: 0; stroke: #000000"/>
     <use xlink:href="#m26bab50852" x="114.470938" y="291.605238" style="fill-opacity: 0; stroke: #000000"/>
     <use xlink:href="#m26bab50852" x="114.470938" y="63.717534" style="fill-opacity: 0; stroke: #000000"/>
     <use xlink:href="#m26bab50852" x="114.470938" y="273.828255" style="fill-opacity: 0; stroke: #000000"/>
     <use xlink:href="#m26bab50852" x="114.470938" y="278.409181" style="fill-opacity: 0; stroke: #000000"/>
     <use xlink:href="#m26bab50852" x="114.470938" y="231.983708" style="fill-opacity: 0; stroke: #000000"/>
     <use xlink:href="#m26bab50852" x="114.470938" y="269.407681" style="fill-opacity: 0; stroke: #000000"/>
     <use xlink:href="#m26bab50852" x="114.470938" y="233.644548" style="fill-opacity: 0; stroke: #000000"/>
     <use xlink:href="#m26bab50852" x="114.470938" y="220.475236" style="fill-opacity: 0; stroke: #000000"/>
     <use xlink:href="#m26bab50852" x="114.470938" y="259.685799" style="fill-opacity: 0; stroke: #000000"/>
     <use xlink:href="#m26bab50852" x="114.470938" y="175.529401" style="fill-opacity: 0; stroke: #000000"/>
    </g>
   </g>
   <g id="line2d_31">
    <path d="M 237.073438 375.537811 
L 318.808438 375.537811 
L 318.808438 338.196522 
L 237.073438 338.196522 
L 237.073438 375.537811 
" clip-path="url(#p5200ac1d84)" style="fill: none; stroke: #000000; stroke-linecap: round"/>
   </g>
   <g id="line2d_32">
    <path d="M 277.940938 375.537811 
L 277.940938 380.154169 
" clip-path="url(#p5200ac1d84)" style="fill: none; stroke: #000000; stroke-linecap: round"/>
   </g>
   <g id="line2d_33">
    <path d="M 277.940938 338.196522 
L 277.940938 283.988412 
" clip-path="url(#p5200ac1d84)" style="fill: none; stroke: #000000; stroke-linecap: round"/>
   </g>
   <g id="line2d_34">
    <path d="M 257.507187 380.154169 
L 298.374688 380.154169 
" clip-path="url(#p5200ac1d84)" style="fill: none; stroke: #000000; stroke-linecap: round"/>
   </g>
   <g id="line2d_35">
    <path d="M 257.507187 283.988412 
L 298.374688 283.988412 
" clip-path="url(#p5200ac1d84)" style="fill: none; stroke: #000000; stroke-linecap: round"/>
   </g>
   <g id="line2d_36">
    <g clip-path="url(#p5200ac1d84)">
     <use xlink:href="#m26bab50852" x="277.940938" y="247.171171" style="fill-opacity: 0; stroke: #000000"/>
     <use xlink:href="#m26bab50852" x="277.940938" y="192.633803" style="fill-opacity: 0; stroke: #000000"/>
     <use xlink:href="#m26bab50852" x="277.940938" y="248.794154" style="fill-opacity: 0; stroke: #000000"/>
     <use xlink:href="#m26bab50852" x="277.940938" y="275.527418" style="fill-opacity: 0; stroke: #000000"/>
     <use xlink:href="#m26bab50852" x="277.940938" y="269.663928" style="fill-opacity: 0; stroke: #000000"/>
     <use xlink:href="#m26bab50852" x="277.940938" y="58.988611" style="fill-opacity: 0; stroke: #000000"/>
     <use xlink:href="#m26bab50852" x="277.940938" y="238.604785" style="fill-opacity: 0; stroke: #000000"/>
     <use xlink:href="#m26bab50852" x="277.940938" y="102.545085" style="fill-opacity: 0; stroke: #000000"/>
     <use xlink:href="#m26bab50852" x="277.940938" y="87.834502" style="fill-opacity: 0; stroke: #000000"/>
     <use xlink:href="#m26bab50852" x="277.940938" y="273.620464" style="fill-opacity: 0; stroke: #000000"/>
     <use xlink:href="#m26bab50852" x="277.940938" y="280.221292" style="fill-opacity: 0; stroke: #000000"/>
     <use xlink:href="#m26bab50852" x="277.940938" y="89.898729" style="fill-opacity: 0; stroke: #000000"/>
     <use xlink:href="#m26bab50852" x="277.940938" y="219.60671" style="fill-opacity: 0; stroke: #000000"/>
     <use xlink:href="#m26bab50852" x="277.940938" y="222.148263" style="fill-opacity: 0; stroke: #000000"/>
     <use xlink:href="#m26bab50852" x="277.940938" y="279.977558" style="fill-opacity: 0; stroke: #000000"/>
     <use xlink:href="#m26bab50852" x="277.940938" y="247.321633" style="fill-opacity: 0; stroke: #000000"/>
     <use xlink:href="#m26bab50852" x="277.940938" y="110.838926" style="fill-opacity: 0; stroke: #000000"/>
     <use xlink:href="#m26bab50852" x="277.940938" y="80.090042" style="fill-opacity: 0; stroke: #000000"/>
     <use xlink:href="#m26bab50852" x="277.940938" y="278.417424" style="fill-opacity: 0; stroke: #000000"/>
     <use xlink:href="#m26bab50852" x="277.940938" y="274.017184" style="fill-opacity: 0; stroke: #000000"/>
     <use xlink:href="#m26bab50852" x="277.940938" y="240.546514" style="fill-opacity: 0; stroke: #000000"/>
     <use xlink:href="#m26bab50852" x="277.940938" y="263.592177" style="fill-opacity: 0; stroke: #000000"/>
     <use xlink:href="#m26bab50852" x="277.940938" y="241.586168" style="fill-opacity: 0; stroke: #000000"/>
     <use xlink:href="#m26bab50852" x="277.940938" y="210.222706" style="fill-opacity: 0; stroke: #000000"/>
     <use xlink:href="#m26bab50852" x="277.940938" y="263.014202" style="fill-opacity: 0; stroke: #000000"/>
     <use xlink:href="#m26bab50852" x="277.940938" y="171.086406" style="fill-opacity: 0; stroke: #000000"/>
    </g>
   </g>
   <g id="line2d_37">
    <path d="M 400.543438 378.573347 
L 482.278438 378.573347 
L 482.278438 334.576433 
L 400.543438 334.576433 
L 400.543438 378.573347 
" clip-path="url(#p5200ac1d84)" style="fill: none; stroke: #000000; stroke-linecap: round"/>
   </g>
   <g id="line2d_38">
    <path d="M 441.410938 378.573347 
L 441.410938 383.421386 
" clip-path="url(#p5200ac1d84)" style="fill: none; stroke: #000000; stroke-linecap: round"/>
   </g>
   <g id="line2d_39">
    <path d="M 441.410938 334.576433 
L 441.410938 273.222878 
" clip-path="url(#p5200ac1d84)" style="fill: none; stroke: #000000; stroke-linecap: round"/>
   </g>
   <g id="line2d_40">
    <path d="M 420.977188 383.421386 
L 461.844688 383.421386 
" clip-path="url(#p5200ac1d84)" style="fill: none; stroke: #000000; stroke-linecap: round"/>
   </g>
   <g id="line2d_41">
    <path d="M 420.977188 273.222878 
L 461.844688 273.222878 
" clip-path="url(#p5200ac1d84)" style="fill: none; stroke: #000000; stroke-linecap: round"/>
   </g>
   <g id="line2d_42">
    <g clip-path="url(#p5200ac1d84)">
     <use xlink:href="#m26bab50852" x="441.410938" y="236.135654" style="fill-opacity: 0; stroke: #000000"/>
     <use xlink:href="#m26bab50852" x="441.410938" y="182.628497" style="fill-opacity: 0; stroke: #000000"/>
     <use xlink:href="#m26bab50852" x="441.410938" y="232.925738" style="fill-opacity: 0; stroke: #000000"/>
     <use xlink:href="#m26bab50852" x="441.410938" y="265.016065" style="fill-opacity: 0; stroke: #000000"/>
     <use xlink:href="#m26bab50852" x="441.410938" y="76.539263" style="fill-opacity: 0; stroke: #000000"/>
     <use xlink:href="#m26bab50852" x="441.410938" y="223.738039" style="fill-opacity: 0; stroke: #000000"/>
     <use xlink:href="#m26bab50852" x="441.410938" y="118.56096" style="fill-opacity: 0; stroke: #000000"/>
     <use xlink:href="#m26bab50852" x="441.410938" y="104.515911" style="fill-opacity: 0; stroke: #000000"/>
     <use xlink:href="#m26bab50852" x="441.410938" y="266.403903" style="fill-opacity: 0; stroke: #000000"/>
     <use xlink:href="#m26bab50852" x="441.410938" y="105.210039" style="fill-opacity: 0; stroke: #000000"/>
     <use xlink:href="#m26bab50852" x="441.410938" y="214.671514" style="fill-opacity: 0; stroke: #000000"/>
     <use xlink:href="#m26bab50852" x="441.410938" y="212.596271" style="fill-opacity: 0; stroke: #000000"/>
     <use xlink:href="#m26bab50852" x="441.410938" y="231.052718" style="fill-opacity: 0; stroke: #000000"/>
     <use xlink:href="#m26bab50852" x="441.410938" y="125.259053" style="fill-opacity: 0; stroke: #000000"/>
     <use xlink:href="#m26bab50852" x="441.410938" y="95.898492" style="fill-opacity: 0; stroke: #000000"/>
     <use xlink:href="#m26bab50852" x="441.410938" y="248.611311" style="fill-opacity: 0; stroke: #000000"/>
     <use xlink:href="#m26bab50852" x="441.410938" y="259.437717" style="fill-opacity: 0; stroke: #000000"/>
     <use xlink:href="#m26bab50852" x="441.410938" y="249.28598" style="fill-opacity: 0; stroke: #000000"/>
     <use xlink:href="#m26bab50852" x="441.410938" y="203.605784" style="fill-opacity: 0; stroke: #000000"/>
     <use xlink:href="#m26bab50852" x="441.410938" y="267.455105" style="fill-opacity: 0; stroke: #000000"/>
     <use xlink:href="#m26bab50852" x="441.410938" y="169.699643" style="fill-opacity: 0; stroke: #000000"/>
    </g>
   </g>
   <g id="line2d_43">
    <path d="M 564.013438 380.980711 
L 645.748438 380.980711 
L 645.748438 329.01286 
L 564.013438 329.01286 
L 564.013438 380.980711 
" clip-path="url(#p5200ac1d84)" style="fill: none; stroke: #000000; stroke-linecap: round"/>
   </g>
   <g id="line2d_44">
    <path d="M 604.880938 380.980711 
L 604.880938 385.985643 
" clip-path="url(#p5200ac1d84)" style="fill: none; stroke: #000000; stroke-linecap: round"/>
   </g>
   <g id="line2d_45">
    <path d="M 604.880938 329.01286 
L 604.880938 256.187438 
" clip-path="url(#p5200ac1d84)" style="fill: none; stroke: #000000; stroke-linecap: round"/>
   </g>
   <g id="line2d_46">
    <path d="M 584.447188 385.985643 
L 625.314688 385.985643 
" clip-path="url(#p5200ac1d84)" style="fill: none; stroke: #000000; stroke-linecap: round"/>
   </g>
   <g id="line2d_47">
    <path d="M 584.447188 256.187438 
L 625.314688 256.187438 
" clip-path="url(#p5200ac1d84)" style="fill: none; stroke: #000000; stroke-linecap: round"/>
   </g>
   <g id="line2d_48">
    <g clip-path="url(#p5200ac1d84)">
     <use xlink:href="#m26bab50852" x="604.880938" y="227.339688" style="fill-opacity: 0; stroke: #000000"/>
     <use xlink:href="#m26bab50852" x="604.880938" y="175.499615" style="fill-opacity: 0; stroke: #000000"/>
     <use xlink:href="#m26bab50852" x="604.880938" y="220.054157" style="fill-opacity: 0; stroke: #000000"/>
     <use xlink:href="#m26bab50852" x="604.880938" y="93.158551" style="fill-opacity: 0; stroke: #000000"/>
     <use xlink:href="#m26bab50852" x="604.880938" y="211.784278" style="fill-opacity: 0; stroke: #000000"/>
     <use xlink:href="#m26bab50852" x="604.880938" y="133.580783" style="fill-opacity: 0; stroke: #000000"/>
     <use xlink:href="#m26bab50852" x="604.880938" y="120.185089" style="fill-opacity: 0; stroke: #000000"/>
     <use xlink:href="#m26bab50852" x="604.880938" y="119.848524" style="fill-opacity: 0; stroke: #000000"/>
     <use xlink:href="#m26bab50852" x="604.880938" y="211.28226" style="fill-opacity: 0; stroke: #000000"/>
     <use xlink:href="#m26bab50852" x="604.880938" y="205.60298" style="fill-opacity: 0; stroke: #000000"/>
     <use xlink:href="#m26bab50852" x="604.880938" y="218.004511" style="fill-opacity: 0; stroke: #000000"/>
     <use xlink:href="#m26bab50852" x="604.880938" y="138.99815" style="fill-opacity: 0; stroke: #000000"/>
     <use xlink:href="#m26bab50852" x="604.880938" y="110.973852" style="fill-opacity: 0; stroke: #000000"/>
     <use xlink:href="#m26bab50852" x="604.880938" y="199.297201" style="fill-opacity: 0; stroke: #000000"/>
     <use xlink:href="#m26bab50852" x="604.880938" y="170.148005" style="fill-opacity: 0; stroke: #000000"/>
    </g>
   </g>
   <g id="line2d_49">
    <path d="M 727.483438 383.144923 
L 809.218438 383.144923 
L 809.218438 324.322959 
L 727.483438 324.322959 
L 727.483438 383.144923 
" clip-path="url(#p5200ac1d84)" style="fill: none; stroke: #000000; stroke-linecap: round"/>
   </g>
   <g id="line2d_50">
    <path d="M 768.350938 383.144923 
L 768.350938 388.029119 
" clip-path="url(#p5200ac1d84)" style="fill: none; stroke: #000000; stroke-linecap: round"/>
   </g>
   <g id="line2d_51">
    <path d="M 768.350938 324.322959 
L 768.350938 249.174942 
" clip-path="url(#p5200ac1d84)" style="fill: none; stroke: #000000; stroke-linecap: round"/>
   </g>
   <g id="line2d_52">
    <path d="M 747.917188 388.029119 
L 788.784688 388.029119 
" clip-path="url(#p5200ac1d84)" style="fill: none; stroke: #000000; stroke-linecap: round"/>
   </g>
   <g id="line2d_53">
    <path d="M 747.917188 249.174942 
L 788.784688 249.174942 
" clip-path="url(#p5200ac1d84)" style="fill: none; stroke: #000000; stroke-linecap: round"/>
   </g>
   <g id="line2d_54">
    <g clip-path="url(#p5200ac1d84)">
     <use xlink:href="#m26bab50852" x="768.350938" y="220.426366" style="fill-opacity: 0; stroke: #000000"/>
     <use xlink:href="#m26bab50852" x="768.350938" y="170.681743" style="fill-opacity: 0; stroke: #000000"/>
     <use xlink:href="#m26bab50852" x="768.350938" y="210.025594" style="fill-opacity: 0; stroke: #000000"/>
     <use xlink:href="#m26bab50852" x="768.350938" y="107.729371" style="fill-opacity: 0; stroke: #000000"/>
     <use xlink:href="#m26bab50852" x="768.350938" y="202.387742" style="fill-opacity: 0; stroke: #000000"/>
     <use xlink:href="#m26bab50852" x="768.350938" y="146.636343" style="fill-opacity: 0; stroke: #000000"/>
     <use xlink:href="#m26bab50852" x="768.350938" y="133.818982" style="fill-opacity: 0; stroke: #000000"/>
     <use xlink:href="#m26bab50852" x="768.350938" y="132.791477" style="fill-opacity: 0; stroke: #000000"/>
     <use xlink:href="#m26bab50852" x="768.350938" y="208.924688" style="fill-opacity: 0; stroke: #000000"/>
     <use xlink:href="#m26bab50852" x="768.350938" y="200.6815" style="fill-opacity: 0; stroke: #000000"/>
     <use xlink:href="#m26bab50852" x="768.350938" y="208.063358" style="fill-opacity: 0; stroke: #000000"/>
     <use xlink:href="#m26bab50852" x="768.350938" y="151.164733" style="fill-opacity: 0; stroke: #000000"/>
     <use xlink:href="#m26bab50852" x="768.350938" y="124.266747" style="fill-opacity: 0; stroke: #000000"/>
     <use xlink:href="#m26bab50852" x="768.350938" y="196.78104" style="fill-opacity: 0; stroke: #000000"/>
     <use xlink:href="#m26bab50852" x="768.350938" y="171.794943" style="fill-opacity: 0; stroke: #000000"/>
    </g>
   </g>
   <g id="line2d_55">
    <path d="M 73.603438 367.05543 
L 155.338438 367.05543 
" clip-path="url(#p5200ac1d84)" style="fill: none; stroke: #bb9832"/>
   </g>
   <g id="line2d_56">
    <path d="M 237.073438 368.212094 
L 318.808438 368.212094 
" clip-path="url(#p5200ac1d84)" style="fill: none; stroke: #bb9832"/>
   </g>
   <g id="line2d_57">
    <path d="M 400.543438 367.611673 
L 482.278438 367.611673 
" clip-path="url(#p5200ac1d84)" style="fill: none; stroke: #bb9832"/>
   </g>
   <g id="line2d_58">
    <path d="M 564.013438 367.629908 
L 645.748438 367.629908 
" clip-path="url(#p5200ac1d84)" style="fill: none; stroke: #bb9832"/>
   </g>
   <g id="line2d_59">
    <path d="M 727.483438 367.922501 
L 809.218438 367.922501 
" clip-path="url(#p5200ac1d84)" style="fill: none; stroke: #bb9832"/>
   </g>
   <g id="patch_3">
    <path d="M 32.735938 405.400937 
L 32.735938 23.220937 
" style="fill: none; stroke: #cccccc; stroke-linejoin: miter; stroke-linecap: square"/>
   </g>
   <g id="patch_4">
    <path d="M 850.085938 405.400937 
L 850.085938 23.220937 
" style="fill: none; stroke: #cccccc; stroke-linejoin: miter; stroke-linecap: square"/>
   </g>
   <g id="patch_5">
    <path d="M 32.735938 405.400937 
L 850.085938 405.400937 
" style="fill: none; stroke: #cccccc; stroke-linejoin: miter; stroke-linecap: square"/>
   </g>
   <g id="patch_6">
    <path d="M 32.735938 23.220937 
L 850.085938 23.220937 
" style="fill: none; stroke: #cccccc; stroke-linejoin: miter; stroke-linecap: square"/>
   </g>
   <g id="text_14">
    <!-- Feature Value Distribution -->
    <g style="fill: #262626" transform="translate(354.677656 17.220937) scale(0.14 -0.14)">
     <defs>
      <path id="Arial-BoldMT-46" d="M 472 0 
L 472 4581 
L 3613 4581 
L 3613 3806 
L 1397 3806 
L 1397 2722 
L 3309 2722 
L 3309 1947 
L 1397 1947 
L 1397 0 
L 472 0 
z
" transform="scale(0.015625)"/>
      <path id="Arial-BoldMT-65" d="M 2381 1056 
L 3256 909 
Q 3088 428 2723 176 
Q 2359 -75 1813 -75 
Q 947 -75 531 491 
Q 203 944 203 1634 
Q 203 2459 634 2926 
Q 1066 3394 1725 3394 
Q 2466 3394 2894 2905 
Q 3322 2416 3303 1406 
L 1103 1406 
Q 1113 1016 1316 798 
Q 1519 581 1822 581 
Q 2028 581 2168 693 
Q 2309 806 2381 1056 
z
M 2431 1944 
Q 2422 2325 2234 2523 
Q 2047 2722 1778 2722 
Q 1491 2722 1303 2513 
Q 1116 2303 1119 1944 
L 2431 1944 
z
" transform="scale(0.015625)"/>
      <path id="Arial-BoldMT-61" d="M 1116 2306 
L 319 2450 
Q 453 2931 781 3162 
Q 1109 3394 1756 3394 
Q 2344 3394 2631 3255 
Q 2919 3116 3036 2902 
Q 3153 2688 3153 2116 
L 3144 1091 
Q 3144 653 3186 445 
Q 3228 238 3344 0 
L 2475 0 
Q 2441 88 2391 259 
Q 2369 338 2359 363 
Q 2134 144 1878 34 
Q 1622 -75 1331 -75 
Q 819 -75 523 203 
Q 228 481 228 906 
Q 228 1188 362 1408 
Q 497 1628 739 1745 
Q 981 1863 1438 1950 
Q 2053 2066 2291 2166 
L 2291 2253 
Q 2291 2506 2166 2614 
Q 2041 2722 1694 2722 
Q 1459 2722 1328 2630 
Q 1197 2538 1116 2306 
z
M 2291 1594 
Q 2122 1538 1756 1459 
Q 1391 1381 1278 1306 
Q 1106 1184 1106 997 
Q 1106 813 1243 678 
Q 1381 544 1594 544 
Q 1831 544 2047 700 
Q 2206 819 2256 991 
Q 2291 1103 2291 1419 
L 2291 1594 
z
" transform="scale(0.015625)"/>
      <path id="Arial-BoldMT-74" d="M 1981 3319 
L 1981 2619 
L 1381 2619 
L 1381 1281 
Q 1381 875 1398 808 
Q 1416 741 1477 697 
Q 1538 653 1625 653 
Q 1747 653 1978 738 
L 2053 56 
Q 1747 -75 1359 -75 
Q 1122 -75 931 4 
Q 741 84 652 211 
Q 563 338 528 553 
Q 500 706 500 1172 
L 500 2619 
L 97 2619 
L 97 3319 
L 500 3319 
L 500 3978 
L 1381 4491 
L 1381 3319 
L 1981 3319 
z
" transform="scale(0.015625)"/>
      <path id="Arial-BoldMT-75" d="M 2644 0 
L 2644 497 
Q 2463 231 2167 78 
Q 1872 -75 1544 -75 
Q 1209 -75 943 72 
Q 678 219 559 484 
Q 441 750 441 1219 
L 441 3319 
L 1319 3319 
L 1319 1794 
Q 1319 1094 1367 936 
Q 1416 778 1544 686 
Q 1672 594 1869 594 
Q 2094 594 2272 717 
Q 2450 841 2515 1023 
Q 2581 1206 2581 1919 
L 2581 3319 
L 3459 3319 
L 3459 0 
L 2644 0 
z
" transform="scale(0.015625)"/>
      <path id="Arial-BoldMT-72" d="M 1300 0 
L 422 0 
L 422 3319 
L 1238 3319 
L 1238 2847 
Q 1447 3181 1614 3287 
Q 1781 3394 1994 3394 
Q 2294 3394 2572 3228 
L 2300 2463 
Q 2078 2606 1888 2606 
Q 1703 2606 1575 2504 
Q 1447 2403 1373 2137 
Q 1300 1872 1300 1025 
L 1300 0 
z
" transform="scale(0.015625)"/>
      <path id="Arial-BoldMT-20" transform="scale(0.015625)"/>
      <path id="Arial-BoldMT-56" d="M 1634 0 
L -3 4581 
L 1000 4581 
L 2159 1191 
L 3281 4581 
L 4263 4581 
L 2622 0 
L 1634 0 
z
" transform="scale(0.015625)"/>
      <path id="Arial-BoldMT-6c" d="M 459 0 
L 459 4581 
L 1338 4581 
L 1338 0 
L 459 0 
z
" transform="scale(0.015625)"/>
      <path id="Arial-BoldMT-44" d="M 463 4581 
L 2153 4581 
Q 2725 4581 3025 4494 
Q 3428 4375 3715 4072 
Q 4003 3769 4153 3330 
Q 4303 2891 4303 2247 
Q 4303 1681 4163 1272 
Q 3991 772 3672 463 
Q 3431 228 3022 97 
Q 2716 0 2203 0 
L 463 0 
L 463 4581 
z
M 1388 3806 
L 1388 772 
L 2078 772 
Q 2466 772 2638 816 
Q 2863 872 3011 1006 
Q 3159 1141 3253 1448 
Q 3347 1756 3347 2288 
Q 3347 2819 3253 3103 
Q 3159 3388 2990 3547 
Q 2822 3706 2563 3763 
Q 2369 3806 1803 3806 
L 1388 3806 
z
" transform="scale(0.015625)"/>
      <path id="Arial-BoldMT-69" d="M 459 3769 
L 459 4581 
L 1338 4581 
L 1338 3769 
L 459 3769 
z
M 459 0 
L 459 3319 
L 1338 3319 
L 1338 0 
L 459 0 
z
" transform="scale(0.015625)"/>
      <path id="Arial-BoldMT-73" d="M 150 947 
L 1031 1081 
Q 1088 825 1259 692 
Q 1431 559 1741 559 
Q 2081 559 2253 684 
Q 2369 772 2369 919 
Q 2369 1019 2306 1084 
Q 2241 1147 2013 1200 
Q 950 1434 666 1628 
Q 272 1897 272 2375 
Q 272 2806 612 3100 
Q 953 3394 1669 3394 
Q 2350 3394 2681 3172 
Q 3013 2950 3138 2516 
L 2309 2363 
Q 2256 2556 2107 2659 
Q 1959 2763 1684 2763 
Q 1338 2763 1188 2666 
Q 1088 2597 1088 2488 
Q 1088 2394 1175 2328 
Q 1294 2241 1995 2081 
Q 2697 1922 2975 1691 
Q 3250 1456 3250 1038 
Q 3250 581 2869 253 
Q 2488 -75 1741 -75 
Q 1063 -75 667 200 
Q 272 475 150 947 
z
" transform="scale(0.015625)"/>
      <path id="Arial-BoldMT-62" d="M 422 0 
L 422 4581 
L 1300 4581 
L 1300 2931 
Q 1706 3394 2263 3394 
Q 2869 3394 3266 2955 
Q 3663 2516 3663 1694 
Q 3663 844 3258 384 
Q 2853 -75 2275 -75 
Q 1991 -75 1714 67 
Q 1438 209 1238 488 
L 1238 0 
L 422 0 
z
M 1294 1731 
Q 1294 1216 1456 969 
Q 1684 619 2063 619 
Q 2353 619 2558 867 
Q 2763 1116 2763 1650 
Q 2763 2219 2556 2470 
Q 2350 2722 2028 2722 
Q 1713 2722 1503 2476 
Q 1294 2231 1294 1731 
z
" transform="scale(0.015625)"/>
      <path id="Arial-BoldMT-6f" d="M 256 1706 
Q 256 2144 472 2553 
Q 688 2963 1083 3178 
Q 1478 3394 1966 3394 
Q 2719 3394 3200 2905 
Q 3681 2416 3681 1669 
Q 3681 916 3195 420 
Q 2709 -75 1972 -75 
Q 1516 -75 1102 131 
Q 688 338 472 736 
Q 256 1134 256 1706 
z
M 1156 1659 
Q 1156 1166 1390 903 
Q 1625 641 1969 641 
Q 2313 641 2545 903 
Q 2778 1166 2778 1666 
Q 2778 2153 2545 2415 
Q 2313 2678 1969 2678 
Q 1625 2678 1390 2415 
Q 1156 2153 1156 1659 
z
" transform="scale(0.015625)"/>
      <path id="Arial-BoldMT-6e" d="M 3478 0 
L 2600 0 
L 2600 1694 
Q 2600 2231 2544 2389 
Q 2488 2547 2361 2634 
Q 2234 2722 2056 2722 
Q 1828 2722 1647 2597 
Q 1466 2472 1398 2265 
Q 1331 2059 1331 1503 
L 1331 0 
L 453 0 
L 453 3319 
L 1269 3319 
L 1269 2831 
Q 1703 3394 2363 3394 
Q 2653 3394 2893 3289 
Q 3134 3184 3257 3021 
Q 3381 2859 3429 2653 
Q 3478 2447 3478 2063 
L 3478 0 
z
" transform="scale(0.015625)"/>
     </defs>
     <use xlink:href="#Arial-BoldMT-46"/>
     <use xlink:href="#Arial-BoldMT-65" transform="translate(61.083984 0)"/>
     <use xlink:href="#Arial-BoldMT-61" transform="translate(116.699219 0)"/>
     <use xlink:href="#Arial-BoldMT-74" transform="translate(172.314453 0)"/>
     <use xlink:href="#Arial-BoldMT-75" transform="translate(205.615234 0)"/>
     <use xlink:href="#Arial-BoldMT-72" transform="translate(266.699219 0)"/>
     <use xlink:href="#Arial-BoldMT-65" transform="translate(305.615234 0)"/>
     <use xlink:href="#Arial-BoldMT-20" transform="translate(361.230469 0)"/>
     <use xlink:href="#Arial-BoldMT-56" transform="translate(389.013672 0)"/>
     <use xlink:href="#Arial-BoldMT-61" transform="translate(450.212891 0)"/>
     <use xlink:href="#Arial-BoldMT-6c" transform="translate(505.828125 0)"/>
     <use xlink:href="#Arial-BoldMT-75" transform="translate(533.611328 0)"/>
     <use xlink:href="#Arial-BoldMT-65" transform="translate(594.695312 0)"/>
     <use xlink:href="#Arial-BoldMT-20" transform="translate(650.310547 0)"/>
     <use xlink:href="#Arial-BoldMT-44" transform="translate(678.09375 0)"/>
     <use xlink:href="#Arial-BoldMT-69" transform="translate(750.310547 0)"/>
     <use xlink:href="#Arial-BoldMT-73" transform="translate(778.09375 0)"/>
     <use xlink:href="#Arial-BoldMT-74" transform="translate(833.708984 0)"/>
     <use xlink:href="#Arial-BoldMT-72" transform="translate(867.009766 0)"/>
     <use xlink:href="#Arial-BoldMT-69" transform="translate(905.925781 0)"/>
     <use xlink:href="#Arial-BoldMT-62" transform="translate(933.708984 0)"/>
     <use xlink:href="#Arial-BoldMT-75" transform="translate(994.792969 0)"/>
     <use xlink:href="#Arial-BoldMT-74" transform="translate(1055.876953 0)"/>
     <use xlink:href="#Arial-BoldMT-69" transform="translate(1089.177734 0)"/>
     <use xlink:href="#Arial-BoldMT-6f" transform="translate(1116.960938 0)"/>
     <use xlink:href="#Arial-BoldMT-6e" transform="translate(1178.044922 0)"/>
    </g>
   </g>
  </g>
 </g>
 <defs>
  <clipPath id="p5200ac1d84">
   <rect x="32.735938" y="23.220937" width="817.35" height="382.18"/>
  </clipPath>
 </defs>
</svg>
